PathFileType	3	(X/Y/Z)	D:\Vicon Database\Healthy Subjects\S0040\Jan. 30, 2020\Force Plate Walk 2.trc
DataRate	CameraRate	NumFrames	NumMarkers	Units	OrigDataRate	OrigDataStartFrame	OrigNumFrames
100.0	100.0	6	53	mm	100.0	421	306	
Frame#	Time	right_foot_cluster2			right_foot_cluster3			sternum_cluster1			sternum_cluster2			sternum_cluster3			left_asis			right_asis			left_psis			right_psis			sacrum_cluster1			sacrum_cluster2			sacrum_cluster3			left_lat_femoral_epicondyle			left_anterior_thigh15			left_anterior_thigh25			left_anterior_thigh50			left_lateral_thigh25			left_lateral_thigh50			left_thigh_cluster1			left_thigh_cluster2			left_thigh_cluster3			left_fibular_head			left_tibial_tuberosity			left_anterior_shank30			left_lateral_malleolus			left_shank_cluster1			left_shank_cluster2			left_shank_cluster3			left_heel			left_metatarsal2			left_foot_cluster1			left_foot_cluster2			left_foot_cluster3			right_lat_femoral_epicondyle			right_anterior_thigh15			right_anterior_thigh25			right_anterior_thigh50			right_lateral_thigh25			right_lateral_thigh50			right_thigh_cluster1			right_thigh_cluster2			right_thigh_cluster3			right_fibular_head			right_tibial_tuberosity			right_lateral_distal_shank			right_anterior_shank30			right_lateral_malleolus			right_shank_cluster1			right_shank_cluster2			right_shank_cluster3			right_heel			right_metatarsal2			right_foot_cluster1			
		X1	Y1	Z1	X2	Y2	Z2	X3	Y3	Z3	X4	Y4	Z4	X5	Y5	Z5	X6	Y6	Z6	X7	Y7	Z7	X8	Y8	Z8	X9	Y9	Z9	X10	Y10	Z10	X11	Y11	Z11	X12	Y12	Z12	X13	Y13	Z13	X14	Y14	Z14	X15	Y15	Z15	X16	Y16	Z16	X17	Y17	Z17	X18	Y18	Z18	X19	Y19	Z19	X20	Y20	Z20	X21	Y21	Z21	X22	Y22	Z22	X23	Y23	Z23	X24	Y24	Z24	X25	Y25	Z25	X26	Y26	Z26	X27	Y27	Z27	X28	Y28	Z28	X29	Y29	Z29	X30	Y30	Z30	X31	Y31	Z31	X32	Y32	Z32	X33	Y33	Z33	X34	Y34	Z34	X35	Y35	Z35	X36	Y36	Z36	X37	Y37	Z37	X38	Y38	Z38	X39	Y39	Z39	X40	Y40	Z40	X41	Y41	Z41	X42	Y42	Z42	X43	Y43	Z43	X44	Y44	Z44	X45	Y45	Z45	X46	Y46	Z46	X47	Y47	Z47	X48	Y48	Z48	X49	Y49	Z49	X50	Y50	Z50	X51	Y51	Z51	X52	Y52	Z52	X53	Y53	Z53	
421	4.2	1608.9611	145.65956	-137.79999	1604.2438	145.59894	-175.57855	1420.6632	1438.0685	-70.468704	1408.1475	1410.3699	-63.291252	1412.916	1413.2338	-101.04645	1421.613	1068.3335	45.279583	1437.8883	1061.6681	-206.00009	1593.0623	1073.429	7.7960553	1601.1436	1068.0071	-110.26654	1607.8364	1127.7417	-60.493401	1615.0748	1102.0377	-70.545929	1615.3208	1098.932	-31.126001	1396.2632	542.02179	57.376949	1323.4044	638.95258	1.2739985	1321.2572	724.71002	21.774786	1347.521	858.646	47.492737	1423.256	692.41028	86.496109	1442.3447	838.26709	118.86549	1438.1753	791.46466	123.09981	1435.7483	762.17102	118.7424	1401.3066	777.6601	119.86065	1387.5228	461.33099	58.693607	1338.7944	456.25928	-3.0124502	1382.7946	205.25731	-22.07975	1444.5787	97.130516	6.3379431	1346.8978	400.56107	-33.172176	1343.5651	372.40442	-26.714474	1362.772	375.84906	-59.939701	1520.2295	64.130112	-28.544704	1301.1062	70.245064	-32.209908	1362.4403	117.09504	-26.506786	1337.7819	101.93433	-15.954526	1334.4413	106.45497	-54.133053	1363.3622	528.81812	-231.0705	1291.0198	622.31494	-179.13472	1300.8287	706.83185	-174.20058	1345.0106	832.55865	-174.75851	1404.0594	675.51379	-242.35107	1454.6106	815.36304	-257.02524	1444.1216	765.38989	-265.57605	1425.6522	743.07147	-265.7186	1461.1682	731.4187	-253.89499	1394.5791	477.80646	-236.48807	1355.6274	439.0274	-189.39542	1595.7435	307.39316	-210.59575	1555.3007	284.37866	-163.13385	1671.8934	237.22807	-194.65053	1412.7729	397.60794	-129.45802	1437.1614	383.742	-122.69814	1423.1968	366.13828	-152.71889	1744.1602	280.01901	-160.4211	1617.3905	101.61433	-145.24452	1608.6669	173.36601	-148.54018
422	4.21	1566.6055	144.39093	-138.54828	1563.0221	144.6324	-175.96265	1406.8721	1440.2084	-70.608521	1394.3831	1412.5634	-63.634342	1399.3527	1415.4189	-101.27388	1408.171	1070.0905	45.565922	1424.8174	1064.8801	-205.22423	1579.2651	1076.0518	8.2644825	1587.7931	1071.0688	-109.73235	1594.4899	1130.8011	-59.45369	1600.9172	1104.8373	-69.800331	1601.6479	1101.6891	-30.391094	1391.4093	542.37854	56.803146	1316.979	638.02332	0.054531533	1313.1262	723.76697	20.796124	1336.8026	858.24823	46.905304	1415.3229	693.18726	85.902954	1431.6342	839.30951	118.46992	1428.4349	792.26697	122.60583	1426.3641	762.95142	118.13281	1391.7286	777.85895	119.80488	1383.9994	461.47614	58.035198	1335.6497	455.64215	-3.8801131	1381.188	205.42035	-22.513517	1444.2828	97.435501	6.1657863	1344.1412	400.29849	-33.689434	1341.2126	372.18997	-27.392515	1360.929	375.49664	-60.545712	1519.3264	64.020096	-28.97843	1300.8488	69.933609	-32.339512	1362.1399	116.99585	-26.649067	1337.4967	101.82595	-16.151798	1334.0339	106.31736	-54.278122	1339.0563	534.86548	-229.75928	1268.7844	630.49188	-179.21422	1280.9606	714.83319	-174.35168	1328.795	838.94659	-174.78891	1384.1547	680.36084	-241.36397	1438.8746	818.94305	-256.24207	1427.2147	769.07037	-264.90781	1407.6313	746.9884	-264.16296	1442.7137	734.58228	-253.0905	1367.5928	482.20859	-235.40327	1326.9573	445.2735	-187.97247	1562.7549	304.65106	-209.49121	1521.796	283.33279	-161.79108	1636.7708	231.40573	-193.44106	1383.4712	402.68866	-127.74579	1407.3944	387.97446	-120.84834	1392.623	370.51331	-150.74995	1711.3987	269.50458	-158.54514	1573.9097	99.298874	-145.67288	1568.0117	171.97078	-148.4904
423	4.22	1524.5699	142.15569	-139.6064	1521.3408	143.08896	-176.92648	1393.4286	1442.613	-71.13588	1380.4469	1414.8461	-63.920395	1385.3693	1417.8668	-101.70153	1394.7438	1071.682	45.920048	1411.6145	1068.0222	-204.42154	1565.6832	1078.507	8.4952631	1574.5249	1074.447	-109.35172	1581.0178	1133.8234	-58.813896	1587.4194	1107.5957	-69.279221	1586.9519	1103.978	-30.085869	1387.3624	542.72632	55.938835	1311.0331	636.84741	-0.46360275	1305.3726	722.59082	19.907074	1326.1475	857.70605	46.426453	1407.9795	693.758	85.28624	1421.0015	840.30896	118.03324	1418.358	793.09937	122.471	1417.2189	763.70453	117.63516	1381.9242	778.19458	118.99958	1381.1614	461.54654	57.433495	1332.7339	455.24936	-4.2526956	1380.7552	205.36586	-22.832188	1443.9843	97.818451	5.8990259	1341.7802	399.91611	-34.193993	1339.0127	371.93585	-27.669008	1358.2126	375.57141	-60.892338	1518.8636	63.279957	-29.565258	1300.5884	69.708679	-32.458344	1361.7511	116.89584	-27.019068	1337.1302	101.78259	-16.370628	1333.8051	106.13856	-54.456738	1315.7058	541.03485	-228.44525	1247.4597	638.59424	-179.43295	1261.7751	722.69287	-174.71715	1313.2155	845.2619	-174.6608	1365.2661	685.29211	-240.5526	1422.6901	823.05096	-256.14072	1410.4316	772.95898	-264.53165	1390.3818	751.09735	-263.3876	1424.7814	738.23083	-252.5307	1341.6863	486.81067	-233.99835	1299.9191	451.76538	-186.73856	1529.7809	301.40866	-208.53954	1487.3903	281.70624	-161.11543	1600.6936	224.68648	-192.55002	1354.7731	407.14612	-126.64639	1377.7634	391.58301	-119.74625	1362.3672	374.59448	-149.31577	1677.9951	257.96402	-156.68094	1528.8431	96.918549	-147.15565	1527.8053	170.12686	-149.16664
424	4.23	1481.6473	139.77328	-141.07115	1478.5767	141.48007	-178.3756	1379.7285	1444.6359	-71.352592	1366.7042	1416.873	-64.194534	1371.762	1420.0026	-101.94023	1381.3314	1073.134	46.262012	1398.1382	1071.17	-203.52625	1552.3883	1081.3927	8.7876987	1561.1611	1077.7257	-109.11787	1567.2438	1136.5215	-58.366863	1573.4716	1110.4191	-69.036453	1573.5701	1106.9457	-29.563374	1383.395	542.81226	55.583096	1304.6595	635.72925	-0.42336035	1297.8914	721.11084	19.308594	1315.2085	857.06879	46.366371	1400.9689	694.36749	84.721458	1410.5131	841.17047	117.70737	1409.1884	793.70654	121.93008	1408.5636	764.75195	117.08968	1372.7303	778.04871	118.21364	1378.7908	461.76706	57.031261	1330.3104	454.77286	-4.305366	1379.3665	205.62434	-22.69771	1443.7219	98.064049	5.6929259	1338.8428	399.89651	-34.120636	1336.9731	371.55258	-27.492565	1355.8555	375.17682	-60.926453	1519.0375	64.408829	-29.259277	1300.3645	69.475723	-32.551056	1361.5078	116.95007	-26.90729	1336.8706	101.66348	-16.501486	1333.5321	106.01083	-54.561165	1293.2836	546.9259	-227.25124	1226.9006	646.54504	-179.57892	1243.1543	730.3894	-175.08907	1297.9214	851.38104	-174.24886	1346.7231	690.37903	-239.8904	1406.7039	827.06427	-256.20081	1393.1742	777.03571	-264.02554	1372.6964	755.88733	-263.9165	1407.5051	742.02972	-251.95399	1316.9561	491.63498	-232.71323	1273.9846	458.16074	-185.84151	1496.6515	297.56052	-207.62427	1452.548	279.556	-160.99409	1564.3043	216.93382	-191.5027	1326.3483	411.19629	-125.84296	1349.089	394.39703	-118.97784	1332.3536	378.2486	-148.4931	1643.0109	244.47969	-154.07196	1482.2003	94.654221	-148.95558	1488.5248	166.22101	-150.42314
425	4.24	1438.2904	136.84503	-142.78568	1435.6484	139.01392	-180.00941	1365.7379	1446.7008	-71.509628	1352.8671	1418.8401	-64.419449	1357.4764	1422.0852	-101.99792	1367.9851	1074.3384	46.595661	1384.6156	1074.0498	-202.63321	1538.9529	1084.1381	8.8501015	1547.7078	1080.8519	-109.10422	1553.6787	1139.4688	-58.020191	1560.1552	1113.4725	-68.65274	1559.9352	1109.6063	-29.403719	1380.2689	543.10138	55.204803	1299.2275	634.23022	-0.007716829	1290.5321	719.62543	19.058151	1305.1085	856.09454	46.15382	1394.4648	695.01111	84.334435	1400.2125	841.93182	117.38475	1400.2019	794.62128	121.39945	1399.1062	765.04364	115.94884	1364.1312	778.02332	118.07908	1376.9542	462.11795	56.819027	1327.8999	454.3873	-3.8435526	1378.1476	205.81956	-22.632963	1443.3284	98.51841	5.5841665	1336.6229	399.66986	-33.73243	1334.6271	371.37152	-26.851059	1352.8295	375.09787	-60.679802	1518.8282	64.778381	-29.432537	1300.364	69.102272	-32.534027	1361.2284	116.82298	-26.845827	1336.6539	101.54998	-16.566631	1333.3541	105.90517	-54.735538	1271.7432	552.52942	-226.15956	1207.157	654.03699	-179.47852	1225.1219	737.81165	-175.22496	1282.9485	857.27313	-173.59035	1328.255	695.42346	-239.87895	1390.9016	831.06921	-256.38257	1376.5908	781.02515	-264.0325	1355.5859	760.34393	-263.9707	1390.0923	745.77209	-252.0873	1293.6337	496.38309	-231.28619	1248.6886	464.39508	-185.09935	1462.5566	292.82794	-206.59775	1417.87	276.72046	-160.84151	1526.7715	208.36169	-190.8376	1298.2827	414.88571	-125.62482	1319.5233	397.02927	-118.48636	1302.6498	381.58075	-148.19171	1605.8647	228.97041	-152.16734	1435.0754	92.362801	-151.1064	1447.1232	162.86945	-151.82135
426	4.25	1394.3851	134.03319	-144.83502	1392.54	136.75372	-182.1721	1351.6561	1448.5968	-71.62336	1338.9464	1420.701	-64.554535	1344.2142	1423.8185	-102.17573	1354.6913	1075.3623	46.828991	1370.9238	1076.6339	-201.90778	1525.7361	1086.3751	8.7902355	1534.1569	1083.7302	-109.32616	1540.1531	1142.2778	-57.752594	1546.7634	1116.3267	-68.575401	1546.3438	1112.1312	-29.395853	1377.4137	543.5694	54.774982	1294.6056	632.89862	0.0052044005	1283.2428	718.12244	19.191967	1294.6018	855.14063	46.454262	1388.073	695.77576	83.660858	1390.5173	842.46741	117.05256	1391.6146	795.34436	120.97554	1391.0531	765.17517	115.71411	1355.9036	778.16663	117.7869	1375.5264	462.46103	56.798672	1325.4431	454.17017	-3.0157394	1377.6111	205.87163	-22.074135	1443.2706	98.688835	5.2838678	1334.4008	399.33386	-33.037365	1332.4152	371.20389	-26.061819	1350.0891	374.92252	-60.101952	1518.8241	65.086906	-29.561102	1299.9512	69.04454	-32.499382	1360.8365	116.97006	-27.16721	1336.3344	101.48713	-16.643831	1333.0316	105.96098	-54.634277	1251.1561	557.91473	-225.22215	1188.0631	661.26007	-179.11275	1207.661	744.9707	-175.06609	1268.3364	862.78809	-172.68965	1309.979	700.20374	-240.14189	1375.286	834.97406	-256.71725	1359.8583	785.11511	-264.3313	1338.509	764.64972	-264.4303	1373.0328	749.30701	-252.60901	1271.5422	500.91623	-229.68462	1224.235	470.46497	-184.58618	1429.6997	287.81485	-206.23009	1382.6393	273.62601	-161.0771	1488.8119	199.24174	-189.91449	1270.5234	418.1644	-125.58382	1290.884	398.77271	-118.51899	1273.2504	384.63171	-148.2928	1568.4292	214.00209	-149.90973	1388.0081	89.976952	-153.65836	1404.5369	159.90378	-153.48863
